<?xml version="1.0" encoding="UTF-8" standalone="no"?><!DOCTYPE svg PUBLIC "-//W3C//DTD SVG 1.1//EN" "http://www.w3.org/Graphics/SVG/1.1/DTD/svg11.dtd"><svg width="100%" height="100%" viewBox="0 0 6880 7817" version="1.1" xmlns="http://www.w3.org/2000/svg" xmlns:xlink="http://www.w3.org/1999/xlink" xml:space="preserve" xmlns:serif="http://www.serif.com/" style="fill-rule:evenodd;clip-rule:evenodd;stroke-linejoin:round;stroke-miterlimit:2;"><rect id="Artboard1" x="0" y="0" width="6878.71" height="7814.25" style="fill:none;"/><g><g id="Layer-1" serif:id="Layer 1"><g id="g841"><g id="Layer-11" serif:id="Layer 1"><g id="g5653"><path d="M6489.96,3645.51l0,0.075l-746.091,0c-236.805,0 -457.28,-114.32 -587.93,-285.8l-522.604,-567.416l-547.096,1371.83l1763.78,3650.05l-694.084,0c-212.308,0 -391.95,-114.321 -473.608,-285.8l-1437.16,-2980.47l-179.642,1682.12c-8.167,195.975 -179.646,342.958 -375.621,342.958l-2678.34,-0l171.479,-440.946c97.987,-212.308 293.966,-367.454 538.933,-367.454l1551.48,-0l179.646,-1918.93l604.258,-1502.48l-783.904,0l-481.775,930.888c-65.325,114.321 -163.312,179.646 -310.296,179.646c-187.808,-0 -342.958,-163.313 -342.958,-342.959c0,-65.325 16.333,-114.321 40.829,-155.15l538.934,-1020.71c130.65,-253.133 383.787,-408.283 669.583,-408.283l1812.78,-0c285.8,-0 547.1,130.654 718.579,326.629l849.23,1061.54l721.595,0l0,0.009c1.363,-0.063 2.713,-0.096 4.067,-0.096c218.692,-0 396.242,109.808 396.242,330.666c-0,220.863 -177.55,400.171 -396.242,400.171c-1.354,0 -2.704,-0.029 -4.067,-0.096Z"/></g></g><circle id="path831" cx="4655.5" cy="740.767" r="740.767"/></g></g></g></svg>