<?xml version="1.0" encoding="UTF-8" standalone="no"?><!DOCTYPE svg PUBLIC "-//W3C//DTD SVG 1.1//EN" "http://www.w3.org/Graphics/SVG/1.1/DTD/svg11.dtd"><svg width="100%" height="100%" viewBox="0 0 2486 805" version="1.1" xmlns="http://www.w3.org/2000/svg" xmlns:xlink="http://www.w3.org/1999/xlink" xml:space="preserve" xmlns:serif="http://www.serif.com/" style="fill-rule:evenodd;clip-rule:evenodd;stroke-linejoin:round;stroke-miterlimit:2;"><rect id="Artboard1" x="0" y="0" width="2485.48" height="804.531" style="fill:none;"/><clipPath id="_clip1"><rect x="0" y="0" width="2485.48" height="804.531"/></clipPath><g clip-path="url(#_clip1)"><g><path d="M860.164,264.765l66.982,-0l96.008,208.984l96.455,-208.984l66.535,-0l0,312.137l-64.749,-0l-0,-177.28l-82.612,177.28l-31.258,-0l-82.165,-177.28l0,177.28l-65.196,-0l0,-312.137Z" style="fill-rule:nonzero;"/><path d="M1391.11,583.6c-31.259,-0 -59.615,-6.847 -85.068,-20.541c-25.453,-13.694 -45.473,-32.821 -60.06,-57.382c-14.588,-24.56 -21.881,-52.767 -21.881,-84.62c-0,-31.854 7.293,-60.135 21.881,-84.844c14.587,-24.709 34.607,-43.911 60.06,-57.605c25.453,-13.694 53.809,-20.541 85.068,-20.541c31.258,-0 59.465,6.847 84.62,20.541c25.156,13.694 45.027,32.896 59.614,57.605c14.588,24.709 21.881,52.99 21.881,84.844c0,31.853 -7.293,60.06 -21.881,84.62c-14.587,24.561 -34.458,43.688 -59.614,57.382c-25.155,13.694 -53.362,20.541 -84.62,20.541Zm-0,-62.517c17.861,0 34.16,-4.093 48.897,-12.28c14.736,-8.186 26.42,-19.797 35.054,-34.83c8.633,-15.034 12.949,-32.673 12.949,-52.916c0,-19.946 -4.242,-37.436 -12.726,-52.47c-8.485,-15.034 -20.095,-26.644 -34.831,-34.83c-14.736,-8.187 -31.184,-12.281 -49.343,-12.281c-18.458,0 -35.054,4.094 -49.791,12.281c-14.736,8.186 -26.42,19.796 -35.054,34.83c-8.633,15.034 -12.949,32.524 -12.949,52.47c-0,20.243 4.316,37.882 12.949,52.916c8.634,15.033 20.393,26.644 35.278,34.83c14.885,8.187 31.407,12.28 49.567,12.28Z" style="fill-rule:nonzero;"/><path d="M1750.58,583.6c-31.258,-0 -59.614,-6.847 -85.067,-20.541c-25.453,-13.694 -45.473,-32.821 -60.061,-57.382c-14.587,-24.56 -21.88,-52.767 -21.88,-84.62c-0,-31.854 7.293,-60.135 21.88,-84.844c14.588,-24.709 34.608,-43.911 60.061,-57.605c25.453,-13.694 53.809,-20.541 85.067,-20.541c31.259,-0 59.466,6.847 84.621,20.541c25.156,13.694 45.027,32.896 59.614,57.605c14.588,24.709 21.881,52.99 21.881,84.844c0,31.853 -7.293,60.06 -21.881,84.62c-14.587,24.561 -34.458,43.688 -59.614,57.382c-25.155,13.694 -53.362,20.541 -84.621,20.541Zm0,-62.517c17.862,0 34.161,-4.093 48.897,-12.28c14.736,-8.186 26.421,-19.797 35.054,-34.83c8.634,-15.034 12.95,-32.673 12.95,-52.916c0,-19.946 -4.242,-37.436 -12.726,-52.47c-8.485,-15.034 -20.095,-26.644 -34.831,-34.83c-14.736,-8.187 -31.184,-12.281 -49.344,-12.281c-18.457,0 -35.054,4.094 -49.79,12.281c-14.736,8.186 -26.42,19.796 -35.054,34.83c-8.633,15.034 -12.95,32.524 -12.95,52.47c0,20.243 4.317,37.882 12.95,52.916c8.634,15.033 20.393,26.644 35.278,34.83c14.885,8.187 31.407,12.28 49.566,12.28Z" style="fill-rule:nonzero;"/><path d="M1916.25,264.765l72.34,-0l85.738,221.934l86.183,-221.934l71.894,-0l-124.586,312.137l-66.536,-0l-125.033,-312.137Z" style="fill-rule:nonzero;"/><path d="M2269.91,264.765l216.576,-0l0,56.711l-148.7,0l-0,72.341l109.404,0l-0,54.479l-109.404,0l-0,71.894l148.7,0l0,56.712l-216.576,-0l0,-312.137Z" style="fill-rule:nonzero;"/></g><clipPath id="_clip2"><rect id="moove_guy.svg" x="1.009" y="1.901" width="708.039" height="804.531"/></clipPath><g clip-path="url(#_clip2)"><rect id="Artboard11" serif:id="Artboard1" x="1.009" y="1.901" width="707.992" height="804.283" style="fill:none;"/><g><g id="Layer-1" serif:id="Layer 1"><g id="g841"><g id="Layer-11" serif:id="Layer 1"><g id="g5653"><path d="M668.989,377.115l-0,0.008l-76.792,0c-24.373,0 -47.065,-11.766 -60.513,-29.416l-53.789,-58.401l-56.31,141.196l181.538,375.682l-71.439,0c-21.851,0 -40.341,-11.766 -48.746,-29.416l-147.919,-306.765l-18.49,173.133c-0.841,20.171 -18.49,35.299 -38.661,35.299l-275.669,0l17.65,-45.384c10.085,-21.852 30.257,-37.821 55.47,-37.821l159.686,0l18.49,-197.506l62.193,-154.643l-80.683,-0l-49.587,95.811c-6.723,11.767 -16.809,18.49 -31.937,18.49c-19.33,0 -35.299,-16.808 -35.299,-35.299c-0,-6.723 1.681,-11.766 4.202,-15.968l55.47,-105.057c13.447,-26.054 39.501,-42.023 68.917,-42.023l186.58,0c29.416,0 56.311,13.448 73.96,33.619l87.407,109.259l74.271,-0l-0,0.001c0.14,-0.007 0.279,-0.01 0.418,-0.01c22.509,-0 40.783,11.302 40.783,34.034c0,22.732 -18.274,41.187 -40.783,41.187c-0.139,0 -0.278,-0.003 -0.418,-0.01Z"/></g></g><circle id="path831" cx="480.177" cy="78.144" r="76.243"/></g></g></g></g></g></svg>